<svg xmlns="http://www.w3.org/2000/svg" xmlns:xlink="http://www.w3.org/1999/xlink" width="500" zoomAndPan="magnify" viewBox="0 0 375 374.999991" height="500" preserveAspectRatio="xMidYMid meet" version="1.0"><defs><g/><clipPath id="a8c245050b"><path d="M 132 97 L 266.261719 97 L 266.261719 231.355469 L 132 231.355469 Z M 132 97 " clip-rule="nonzero"/></clipPath></defs><g clip-path="url(#a8c245050b)"><path fill="#03acee" d="M 243.367188 97.824219 L 132.746094 208.449219 C 133.671875 209.375 135.1875 209.375 136.113281 208.449219 L 144.527344 200.035156 L 143.3125 206.132812 C 143.058594 207.433594 143.898438 208.675781 145.183594 208.933594 C 146.484375 209.191406 147.726562 208.347656 147.984375 207.0625 L 150.597656 193.949219 L 162.738281 181.808594 L 159.511719 199.105469 C 159.269531 200.40625 160.125 201.648438 161.410156 201.890625 C 162.710938 202.132812 163.953125 201.277344 164.195312 199.992188 L 168.710938 175.839844 L 185.648438 158.898438 L 185.648438 182.851562 L 171.765625 203.121094 C 171.023438 204.207031 171.292969 205.691406 172.394531 206.433594 C 173.480469 207.175781 174.964844 206.90625 175.707031 205.820312 L 185.648438 191.292969 L 185.648438 208.460938 L 178.234375 219.574219 C 177.507812 220.671875 177.792969 222.160156 178.894531 222.886719 C 179.992188 223.617188 181.476562 223.332031 182.207031 222.230469 L 185.648438 217.058594 L 185.648438 228.972656 C 185.648438 229.628906 185.921875 230.230469 186.347656 230.65625 C 186.777344 231.085938 187.378906 231.355469 188.035156 231.355469 C 189.347656 231.355469 190.417969 230.285156 190.417969 228.972656 L 190.417969 217.074219 L 193.863281 222.246094 C 194.589844 223.332031 196.074219 223.628906 197.175781 222.902344 C 198.273438 222.171875 198.5625 220.6875 197.832031 219.589844 L 190.417969 208.460938 L 190.417969 191.308594 L 200.359375 205.820312 C 201.101562 206.90625 202.589844 207.175781 203.675781 206.449219 C 204.761719 205.703125 205.046875 204.21875 204.304688 203.132812 L 190.417969 182.867188 L 190.417969 158.914062 L 207.359375 175.851562 L 211.871094 200.007812 C 212.117188 201.304688 213.359375 202.148438 214.65625 201.917969 C 215.957031 201.675781 216.800781 200.433594 216.570312 199.132812 L 213.328125 181.835938 L 225.46875 193.976562 L 228.085938 207.089844 C 228.339844 208.375 229.597656 209.21875 230.898438 208.960938 C 232.183594 208.703125 233.027344 207.449219 232.769531 206.160156 L 231.554688 200.078125 L 239.96875 208.488281 C 240.894531 209.417969 242.410156 209.417969 243.339844 208.488281 C 244.265625 207.5625 244.265625 206.046875 243.339844 205.121094 L 234.925781 196.707031 L 241.023438 197.921875 C 242.308594 198.175781 243.582031 197.335938 243.824219 196.050781 C 244.082031 194.75 243.238281 193.492188 241.953125 193.234375 L 228.839844 190.621094 L 216.699219 178.480469 L 233.996094 181.722656 C 235.296875 181.964844 236.539062 181.109375 236.78125 179.808594 C 237.027344 178.511719 236.167969 177.265625 234.867188 177.023438 L 210.714844 172.511719 L 193.777344 155.570312 L 217.742188 155.570312 L 238.011719 169.453125 C 239.097656 170.195312 240.582031 169.925781 241.339844 168.824219 C 242.082031 167.742188 241.808594 166.253906 240.710938 165.511719 L 226.199219 155.570312 L 243.351562 155.570312 L 254.480469 162.984375 C 255.578125 163.710938 257.050781 163.414062 257.792969 162.328125 C 258.523438 161.226562 258.234375 159.742188 257.136719 159.011719 L 251.964844 155.570312 L 263.863281 155.570312 C 264.519531 155.570312 265.121094 155.300781 265.550781 154.871094 C 265.976562 154.441406 266.25 153.84375 266.25 153.1875 C 266.25 151.871094 265.175781 150.800781 263.863281 150.800781 L 251.953125 150.800781 L 257.121094 147.359375 C 258.222656 146.628906 258.507812 145.144531 257.777344 144.042969 C 257.050781 142.945312 255.566406 142.660156 254.464844 143.386719 L 243.351562 150.800781 L 226.183594 150.800781 L 240.710938 140.859375 C 241.796875 140.117188 242.066406 138.632812 241.324219 137.546875 C 240.582031 136.460938 239.097656 136.175781 238.011719 136.917969 L 217.742188 150.800781 L 193.777344 150.800781 L 210.714844 133.859375 L 234.867188 129.347656 C 236.167969 129.105469 237.011719 127.863281 236.769531 126.5625 C 236.527344 125.261719 235.28125 124.40625 233.984375 124.664062 L 216.6875 127.890625 L 228.828125 115.75 L 241.9375 113.136719 C 243.238281 112.878906 244.066406 111.621094 243.808594 110.335938 C 243.554688 109.035156 242.296875 108.207031 241.011719 108.464844 L 234.910156 109.679688 L 243.324219 101.265625 C 244.296875 100.265625 244.296875 98.765625 243.367188 97.824219 Z M 243.367188 97.824219 " fill-opacity="1" fill-rule="nonzero"/></g><path fill="#ed1b24" d="M 145.484375 183.722656 L 129.660156 199.550781 C 128.058594 201.148438 128.058594 203.761719 129.660156 205.363281 L 151.296875 183.722656 C 149.683594 182.109375 147.085938 182.109375 145.484375 183.722656 Z M 145.484375 183.722656 " fill-opacity="1" fill-rule="nonzero"/><path fill="#ed1b24" d="M 139.085938 162.828125 L 138.84375 161.898438 C 138.328125 159.957031 136.328125 158.8125 134.402344 159.328125 L 111.863281 165.371094 C 109.921875 165.882812 108.777344 167.882812 109.292969 169.8125 L 109.535156 170.738281 C 110.046875 172.683594 112.046875 173.824219 113.976562 173.3125 L 136.515625 167.269531 C 138.457031 166.753906 139.613281 164.769531 139.085938 162.828125 Z M 139.085938 162.828125 " fill-opacity="1" fill-rule="nonzero"/><path fill="#ed1b24" d="M 138.84375 138.1875 L 139.085938 137.261719 C 139.601562 135.316406 138.457031 133.332031 136.515625 132.816406 L 113.976562 126.777344 C 112.035156 126.261719 110.046875 127.40625 109.535156 129.347656 L 109.292969 130.277344 C 108.777344 132.21875 109.921875 134.203125 111.863281 134.71875 L 134.402344 140.757812 C 136.328125 141.273438 138.328125 140.117188 138.84375 138.1875 Z M 138.84375 138.1875 " fill-opacity="1" fill-rule="nonzero"/><path fill="#ed1b24" d="M 150.957031 116.707031 L 151.625 116.035156 C 153.039062 114.621094 153.039062 112.320312 151.625 110.894531 L 135.128906 94.398438 C 133.714844 92.984375 131.417969 92.984375 129.988281 94.398438 L 129.316406 95.066406 C 127.902344 96.480469 127.902344 98.78125 129.316406 100.210938 L 145.8125 116.707031 C 147.242188 118.136719 149.542969 118.136719 150.957031 116.707031 Z M 150.957031 116.707031 " fill-opacity="1" fill-rule="nonzero"/><path fill="#ed1b24" d="M 172.179688 104.167969 L 173.109375 103.921875 C 175.050781 103.410156 176.195312 101.410156 175.679688 99.480469 L 169.636719 76.941406 C 169.125 75 167.125 73.855469 165.195312 74.371094 L 164.265625 74.613281 C 162.324219 75.128906 161.183594 77.128906 161.695312 79.054688 L 167.738281 101.59375 C 168.253906 103.539062 170.238281 104.695312 172.179688 104.167969 Z M 172.179688 104.167969 " fill-opacity="1" fill-rule="nonzero"/><path fill="#ed1b24" d="M 196.832031 103.921875 L 197.761719 104.167969 C 199.703125 104.679688 201.6875 103.539062 202.203125 101.59375 L 208.246094 79.054688 C 208.757812 77.113281 207.617188 75.128906 205.675781 74.613281 L 204.746094 74.371094 C 202.804688 73.855469 200.816406 75 200.304688 76.941406 L 194.261719 99.480469 C 193.746094 101.410156 194.890625 103.410156 196.832031 103.921875 Z M 196.832031 103.921875 " fill-opacity="1" fill-rule="nonzero"/><path fill="#ed1b24" d="M 157.253906 122.335938 C 141.957031 137.632812 141.957031 162.457031 157.253906 177.753906 L 212.671875 122.335938 C 197.375 107.035156 172.550781 107.035156 157.253906 122.335938 Z M 157.253906 122.335938 " fill-opacity="1" fill-rule="nonzero"/><path fill="#ed1b24" d="M 234.453125 94.738281 L 218.628906 110.566406 C 217.027344 112.164062 217.027344 114.777344 218.628906 116.378906 L 240.28125 94.738281 C 239.480469 93.941406 238.425781 93.539062 237.367188 93.539062 C 236.3125 93.539062 235.269531 93.925781 234.453125 94.738281 Z M 234.453125 94.738281 " fill-opacity="1" fill-rule="nonzero"/><g fill="#ed1b24" fill-opacity="1"><g transform="translate(73.283591, 268.262078)"><g/></g></g><g fill="#ed1b24" fill-opacity="1"><g transform="translate(90.849996, 268.262078)"><g><path d="M 25.761719 0 L 22.792969 -19.246094 L 18.613281 -19.246094 L 13.390625 -7.421875 L 8.164062 -19.246094 L 4.015625 -19.246094 L 0.988281 0 L 5.222656 0 L 7.121094 -12.539062 L 12.867188 -0.0273438 L 13.886719 -0.0273438 L 19.632812 -12.539062 L 21.527344 0 Z M 25.761719 0 "/></g></g></g><g fill="#ed1b24" fill-opacity="1"><g transform="translate(128.654232, 268.262078)"><g><path d="M 12.179688 -14.847656 L 8.46875 -5.691406 L 4.507812 -14.847656 L 0.136719 -14.847656 L 6.433594 -1.128906 L 6.378906 -1.015625 C 5.472656 1.238281 4.976562 1.757812 3.023438 1.757812 L 1.648438 1.757812 L 1.648438 5.363281 L 3.300781 5.363281 C 6.625 5.363281 8.195312 3.847656 9.980469 -0.191406 L 16.441406 -14.847656 Z M 12.179688 -14.847656 "/></g></g></g><g fill="#ed1b24" fill-opacity="1"><g transform="translate(156.203922, 268.262078)"><g><path d="M 0 4.839844 L 14.1875 4.839844 L 14.1875 0.988281 L 0 0.988281 Z M 0 4.839844 "/></g></g></g><g fill="#ed1b24" fill-opacity="1"><g transform="translate(181.389282, 268.262078)"><g><path d="M 6.351562 -3.847656 L 6.351562 -19.246094 L 2.199219 -19.246094 L 2.199219 0 L 13.746094 0 L 13.746094 -3.847656 Z M 6.351562 -3.847656 "/></g></g></g><g fill="#ed1b24" fill-opacity="1"><g transform="translate(206.739603, 268.262078)"><g><path d="M 8.964844 0.441406 C 13.554688 0.441406 16.992188 -2.941406 16.992188 -7.421875 C 16.992188 -11.90625 13.554688 -15.257812 8.964844 -15.257812 C 4.371094 -15.257812 0.933594 -11.90625 0.933594 -7.421875 C 0.933594 -2.941406 4.371094 0.441406 8.964844 0.441406 Z M 8.964844 -3.355469 C 6.652344 -3.355469 5.003906 -5.003906 5.003906 -7.421875 C 5.003906 -9.816406 6.652344 -11.492188 8.964844 -11.492188 C 11.273438 -11.492188 12.921875 -9.816406 12.921875 -7.421875 C 12.921875 -5.003906 11.273438 -3.355469 8.964844 -3.355469 Z M 8.964844 -3.355469 "/></g></g></g><g fill="#ed1b24" fill-opacity="1"><g transform="translate(235.69139, 268.262078)"><g><path d="M 8.824219 0.441406 C 12.703125 0.441406 15.753906 -2.089844 16.441406 -5.828125 L 12.398438 -5.828125 C 11.710938 -4.234375 10.449219 -3.355469 8.824219 -3.355469 C 6.679688 -3.355469 5.003906 -5.140625 5.003906 -7.421875 C 5.003906 -9.734375 6.652344 -11.492188 8.824219 -11.492188 C 10.421875 -11.492188 11.769531 -10.613281 12.398438 -9.15625 L 16.386719 -9.15625 C 15.671875 -12.8125 12.703125 -15.257812 8.851562 -15.257812 C 4.34375 -15.257812 0.933594 -11.90625 0.933594 -7.449219 C 0.933594 -2.996094 4.34375 0.441406 8.824219 0.441406 Z M 8.824219 0.441406 "/></g></g></g><g fill="#ed1b24" fill-opacity="1"><g transform="translate(263.873403, 268.262078)"><g><path d="M 14.023438 -14.847656 L 13.609375 -13.445312 C 12.316406 -14.574219 10.640625 -15.257812 8.714844 -15.257812 C 4.261719 -15.257812 0.933594 -11.90625 0.933594 -7.421875 C 0.933594 -2.941406 4.261719 0.441406 8.714844 0.441406 C 10.613281 0.441406 12.261719 -0.21875 13.527344 -1.347656 L 13.886719 0 L 17.019531 0 L 17.019531 -14.847656 Z M 9.046875 -3.355469 C 6.707031 -3.355469 5.003906 -5.113281 5.003906 -7.421875 C 5.003906 -9.761719 6.707031 -11.492188 9.046875 -11.492188 C 11.382812 -11.492188 13.085938 -9.761719 13.085938 -7.421875 C 13.085938 -5.085938 11.382812 -3.355469 9.046875 -3.355469 Z M 9.046875 -3.355469 "/></g></g></g><g fill="#ed1b24" fill-opacity="1"><g transform="translate(293.842399, 268.262078)"><g><path d="M 1.925781 0 L 5.9375 0 L 5.9375 -20.179688 L 1.925781 -20.179688 Z M 1.925781 0 "/></g></g></g><g fill="#03acee" fill-opacity="1"><g transform="translate(146.541617, 298.292733)"><g><path d="M 8.234375 -4.8125 L 6.46875 0 L 5.375 0 L 4.140625 -3.3125 L 2.875 0 L 1.796875 0 L 0.03125 -4.8125 L 1.09375 -4.8125 L 2.359375 -1.265625 L 3.6875 -4.8125 L 4.640625 -4.8125 L 5.9375 -1.234375 L 7.234375 -4.8125 Z M 8.234375 -4.8125 "/></g></g></g><g fill="#03acee" fill-opacity="1"><g transform="translate(162.013934, 298.292733)"><g><path d="M 5.25 -2.375 C 5.25 -2.300781 5.242188 -2.191406 5.234375 -2.046875 L 1.46875 -2.046875 C 1.53125 -1.691406 1.703125 -1.410156 1.984375 -1.203125 C 2.265625 -0.992188 2.613281 -0.890625 3.03125 -0.890625 C 3.550781 -0.890625 3.984375 -1.0625 4.328125 -1.40625 L 4.9375 -0.71875 C 4.71875 -0.457031 4.441406 -0.257812 4.109375 -0.125 C 3.785156 0 3.414062 0.0625 3 0.0625 C 2.46875 0.0625 2 -0.0390625 1.59375 -0.25 C 1.195312 -0.457031 0.890625 -0.75 0.671875 -1.125 C 0.453125 -1.5 0.34375 -1.925781 0.34375 -2.40625 C 0.34375 -2.875 0.445312 -3.296875 0.65625 -3.671875 C 0.875 -4.046875 1.171875 -4.335938 1.546875 -4.546875 C 1.921875 -4.753906 2.347656 -4.859375 2.828125 -4.859375 C 3.296875 -4.859375 3.710938 -4.753906 4.078125 -4.546875 C 4.453125 -4.335938 4.738281 -4.046875 4.9375 -3.671875 C 5.144531 -3.296875 5.25 -2.863281 5.25 -2.375 Z M 2.828125 -3.953125 C 2.460938 -3.953125 2.15625 -3.847656 1.90625 -3.640625 C 1.65625 -3.429688 1.503906 -3.148438 1.453125 -2.796875 L 4.1875 -2.796875 C 4.132812 -3.140625 3.984375 -3.414062 3.734375 -3.625 C 3.492188 -3.84375 3.191406 -3.953125 2.828125 -3.953125 Z M 2.828125 -3.953125 "/></g></g></g><g fill="#03acee" fill-opacity="1"><g transform="translate(174.813231, 298.292733)"><g><path d="M 2.578125 -4.859375 C 3.285156 -4.859375 3.828125 -4.6875 4.203125 -4.34375 C 4.578125 -4.007812 4.765625 -3.5 4.765625 -2.8125 L 4.765625 0 L 3.703125 0 L 3.703125 -0.578125 C 3.554688 -0.367188 3.359375 -0.207031 3.109375 -0.09375 C 2.859375 0.0078125 2.550781 0.0625 2.1875 0.0625 C 1.820312 0.0625 1.503906 0 1.234375 -0.125 C 0.972656 -0.25 0.765625 -0.421875 0.609375 -0.640625 C 0.460938 -0.859375 0.390625 -1.101562 0.390625 -1.375 C 0.390625 -1.8125 0.550781 -2.160156 0.875 -2.421875 C 1.195312 -2.679688 1.703125 -2.8125 2.390625 -2.8125 L 3.640625 -2.8125 L 3.640625 -2.875 C 3.640625 -3.21875 3.535156 -3.476562 3.328125 -3.65625 C 3.128906 -3.832031 2.832031 -3.921875 2.4375 -3.921875 C 2.164062 -3.921875 1.898438 -3.878906 1.640625 -3.796875 C 1.378906 -3.710938 1.160156 -3.597656 0.984375 -3.453125 L 0.546875 -4.265625 C 0.796875 -4.453125 1.097656 -4.597656 1.453125 -4.703125 C 1.804688 -4.804688 2.179688 -4.859375 2.578125 -4.859375 Z M 2.421875 -0.75 C 2.703125 -0.75 2.953125 -0.8125 3.171875 -0.9375 C 3.390625 -1.070312 3.546875 -1.257812 3.640625 -1.5 L 3.640625 -2.0625 L 2.46875 -2.0625 C 1.820312 -2.0625 1.5 -1.847656 1.5 -1.421875 C 1.5 -1.210938 1.578125 -1.046875 1.734375 -0.921875 C 1.898438 -0.804688 2.128906 -0.75 2.421875 -0.75 Z M 2.421875 -0.75 "/></g></g></g><g fill="#03acee" fill-opacity="1"><g transform="translate(187.477534, 298.292733)"><g><path d="M 3.625 -0.265625 C 3.488281 -0.148438 3.328125 -0.0664062 3.140625 -0.015625 C 2.953125 0.0351562 2.753906 0.0625 2.546875 0.0625 C 2.015625 0.0625 1.601562 -0.0703125 1.3125 -0.34375 C 1.03125 -0.625 0.890625 -1.03125 0.890625 -1.5625 L 0.890625 -3.875 L 0.09375 -3.875 L 0.09375 -4.765625 L 0.890625 -4.765625 L 0.890625 -5.875 L 2.015625 -5.875 L 2.015625 -4.765625 L 3.296875 -4.765625 L 3.296875 -3.875 L 2.015625 -3.875 L 2.015625 -1.578125 C 2.015625 -1.347656 2.070312 -1.171875 2.1875 -1.046875 C 2.300781 -0.921875 2.46875 -0.859375 2.6875 -0.859375 C 2.9375 -0.859375 3.144531 -0.925781 3.3125 -1.0625 Z M 3.625 -0.265625 "/></g></g></g><g fill="#03acee" fill-opacity="1"><g transform="translate(198.494826, 298.292733)"><g><path d="M 3.46875 -4.859375 C 4.070312 -4.859375 4.554688 -4.679688 4.921875 -4.328125 C 5.285156 -3.972656 5.46875 -3.445312 5.46875 -2.75 L 5.46875 0 L 4.34375 0 L 4.34375 -2.609375 C 4.34375 -3.023438 4.242188 -3.335938 4.046875 -3.546875 C 3.847656 -3.765625 3.566406 -3.875 3.203125 -3.875 C 2.785156 -3.875 2.457031 -3.75 2.21875 -3.5 C 1.976562 -3.25 1.859375 -2.894531 1.859375 -2.4375 L 1.859375 0 L 0.734375 0 L 0.734375 -6.671875 L 1.859375 -6.671875 L 1.859375 -4.25 C 2.046875 -4.445312 2.273438 -4.597656 2.546875 -4.703125 C 2.828125 -4.804688 3.132812 -4.859375 3.46875 -4.859375 Z M 3.46875 -4.859375 "/></g></g></g><g fill="#03acee" fill-opacity="1"><g transform="translate(211.861135, 298.292733)"><g><path d="M 5.25 -2.375 C 5.25 -2.300781 5.242188 -2.191406 5.234375 -2.046875 L 1.46875 -2.046875 C 1.53125 -1.691406 1.703125 -1.410156 1.984375 -1.203125 C 2.265625 -0.992188 2.613281 -0.890625 3.03125 -0.890625 C 3.550781 -0.890625 3.984375 -1.0625 4.328125 -1.40625 L 4.9375 -0.71875 C 4.71875 -0.457031 4.441406 -0.257812 4.109375 -0.125 C 3.785156 0 3.414062 0.0625 3 0.0625 C 2.46875 0.0625 2 -0.0390625 1.59375 -0.25 C 1.195312 -0.457031 0.890625 -0.75 0.671875 -1.125 C 0.453125 -1.5 0.34375 -1.925781 0.34375 -2.40625 C 0.34375 -2.875 0.445312 -3.296875 0.65625 -3.671875 C 0.875 -4.046875 1.171875 -4.335938 1.546875 -4.546875 C 1.921875 -4.753906 2.347656 -4.859375 2.828125 -4.859375 C 3.296875 -4.859375 3.710938 -4.753906 4.078125 -4.546875 C 4.453125 -4.335938 4.738281 -4.046875 4.9375 -3.671875 C 5.144531 -3.296875 5.25 -2.863281 5.25 -2.375 Z M 2.828125 -3.953125 C 2.460938 -3.953125 2.15625 -3.847656 1.90625 -3.640625 C 1.65625 -3.429688 1.503906 -3.148438 1.453125 -2.796875 L 4.1875 -2.796875 C 4.132812 -3.140625 3.984375 -3.414062 3.734375 -3.625 C 3.492188 -3.84375 3.191406 -3.953125 2.828125 -3.953125 Z M 2.828125 -3.953125 "/></g></g></g><g fill="#03acee" fill-opacity="1"><g transform="translate(224.660436, 298.292733)"><g><path d="M 1.8125 -4.109375 C 2.132812 -4.609375 2.703125 -4.859375 3.515625 -4.859375 L 3.515625 -3.78125 C 3.421875 -3.800781 3.335938 -3.8125 3.265625 -3.8125 C 2.816406 -3.8125 2.46875 -3.679688 2.21875 -3.421875 C 1.976562 -3.171875 1.859375 -2.804688 1.859375 -2.328125 L 1.859375 0 L 0.734375 0 L 0.734375 -4.8125 L 1.8125 -4.8125 Z M 1.8125 -4.109375 "/></g></g></g></svg>